<?xml version="1.0" standalone="no"?>
<!DOCTYPE svg PUBLIC "-//W3C//DTD SVG 20010904//EN"
 "http://www.w3.org/TR/2001/REC-SVG-20010904/DTD/svg10.dtd">
<svg version="1.0" xmlns="http://www.w3.org/2000/svg"
 width="512.000000pt" height="512.000000pt" viewBox="0 0 512.000000 512.000000"
 preserveAspectRatio="xMidYMid meet">

<g transform="translate(0.000000,512.000000) scale(0.100000,-0.100000)"
fill="#000000" stroke="none">
<path d="M623 4495 c-174 -47 -328 -189 -431 -395 l-47 -95 -10 -440 c-11
-489 -12 -484 52 -613 116 -234 366 -360 669 -337 l94 7 0 63 c0 35 -5 87 -11
114 -19 88 -104 141 -225 141 -74 0 -199 84 -236 158 l-23 47 4 405 c3 399 4
406 26 450 70 138 271 213 417 157 57 -22 121 -89 154 -162 24 -52 24 -56 22
-311 l-3 -258 90 -45 c70 -34 107 -62 167 -122 l78 -78 2 377 c0 207 0 391 -1
407 -1 17 -13 65 -27 107 -72 221 -247 373 -485 423 -87 19 -207 18 -276 0z"/>
<path d="M638 3383 l-48 -4 0 -64 c0 -35 5 -87 11 -114 19 -88 104 -141 225
-141 74 0 199 -84 236 -158 l23 -47 -4 -405 c-3 -399 -4 -406 -26 -450 -70
-138 -271 -213 -417 -157 -57 22 -121 89 -154 162 -24 52 -24 56 -22 311 l3
258 -90 45 c-70 34 -107 62 -167 122 l-78 78 -2 -377 c0 -207 0 -390 1 -407 6
-94 88 -263 169 -348 145 -153 418 -233 615 -182 168 44 328 184 419 367 61
121 67 175 76 618 7 385 6 397 -14 461 -31 98 -79 175 -158 255 -78 77 -173
131 -281 159 -62 16 -235 26 -317 18z"/>
<path d="M4855 2654 c-22 -7 -41 -14 -42 -14 -1 0 -14 -17 -28 -37 -30 -45
-32 -96 -5 -140 32 -53 70 -69 153 -65 15 1 43 16 63 35 31 28 37 41 41 83 9
102 -85 173 -182 138z"/>
<path d="M1520 2075 l0 -525 140 0 140 0 0 226 c0 136 4 233 10 245 7 13 21
19 45 19 24 0 38 -6 45 -19 6 -12 10 -109 10 -245 l0 -226 141 0 140 0 -3 298
c-3 290 -4 298 -27 342 -13 25 -33 56 -45 68 -58 65 -170 83 -260 44 -27 -12
-50 -22 -52 -22 -2 0 -4 72 -4 160 l0 160 -140 0 -140 0 0 -525z"/>
<path d="M3742 2218 c3 -375 3 -384 26 -433 67 -146 167 -217 335 -240 l47 -6
0 149 0 150 -45 11 c-54 14 -73 40 -82 110 l-6 51 67 0 66 0 0 150 0 150 -65
0 -65 0 0 145 0 145 -141 0 -140 0 3 -382z"/>
<path d="M4300 2075 l0 -525 140 0 140 0 0 525 0 525 -140 0 -140 0 0 -525z"/>
<path d="M2667 2330 c-85 -11 -175 -59 -240 -130 -216 -233 -79 -609 240 -660
161 -26 333 61 411 208 155 290 -80 623 -411 582z m135 -309 c30 -27 33 -35
33 -86 0 -51 -3 -59 -33 -86 -26 -23 -42 -29 -78 -29 -39 0 -51 5 -80 34 -29
29 -34 41 -34 81 0 40 5 52 34 81 29 29 41 34 80 34 36 0 52 -6 78 -29z"/>
<path d="M3535 2330 c-111 -16 -193 -79 -241 -183 l-29 -62 -3 -267 -3 -268
140 0 141 0 0 208 c0 177 3 212 18 242 16 33 20 35 65 35 l47 0 0 148 0 147
-29 0 c-16 0 -35 2 -43 4 -7 2 -35 0 -63 -4z"/>
<path d="M4760 1935 l0 -385 140 0 140 0 0 385 0 385 -140 0 -140 0 0 -385z"/>
</g>
</svg>
